<?xml version="1.0" encoding="UTF-8" standalone="no"?>
<!DOCTYPE svg PUBLIC "-//W3C//DTD SVG 1.1//EN"
 "http://www.w3.org/Graphics/SVG/1.1/DTD/svg11.dtd">
<!-- Generated by graphviz version 2.47.0 (20210316.0004)
 -->
<!-- Title: dbml Pages: 1 -->
<svg width="2377pt" height="2365pt"
 viewBox="0.00 0.00 2377.33 2365.49" xmlns="http://www.w3.org/2000/svg" xmlns:xlink="http://www.w3.org/1999/xlink">
<g id="graph0" class="graph" transform="scale(1 1) rotate(0) translate(4 2361.49)">
<title>dbml</title>
<!-- Address -->
<g id="Address" class="node">
<title>Address</title>
<ellipse fill="none" stroke="black" stroke-width="0" cx="2125.38" cy="-1216.96" rx="243.9" ry="257.27"/>
<polygon fill="#1d71b8" stroke="transparent" points="1955.38,-1336.96 1955.38,-1396.96 2296.38,-1396.96 2296.38,-1336.96 1955.38,-1336.96"/>
<polygon fill="none" stroke="#29235c" points="1955.38,-1336.96 1955.38,-1396.96 2296.38,-1396.96 2296.38,-1336.96 1955.38,-1336.96"/>
<text text-anchor="start" x="2004.95" y="-1358.16" font-family="Helvetica,sans-Serif" font-weight="bold" font-size="32.00" fill="#ffffff"> &#160;&#160;&#160;&#160;&#160;&#160;Address &#160;&#160;&#160;&#160;&#160;&#160;</text>
<polygon fill="#e7e2dd" stroke="transparent" points="1955.38,-1276.96 1955.38,-1336.96 2296.38,-1336.96 2296.38,-1276.96 1955.38,-1276.96"/>
<polygon fill="none" stroke="#29235c" points="1955.38,-1276.96 1955.38,-1336.96 2296.38,-1336.96 2296.38,-1276.96 1955.38,-1276.96"/>
<text text-anchor="start" x="1966.38" y="-1298.16" font-family="Helvetica,sans-Serif" font-weight="bold" font-size="32.00" fill="#29235c">id</text>
<text text-anchor="start" x="1991.27" y="-1298.16" font-family="Helvetica,sans-Serif" font-size="32.00" fill="#29235c"> &#160;&#160;&#160;</text>
<text text-anchor="start" x="2143.16" y="-1298.16" font-family="Helvetica,sans-Serif" font-style="italic" font-size="32.00" fill="#29235c">INTEGER</text>
<polygon fill="#e7e2dd" stroke="transparent" points="1955.38,-1216.96 1955.38,-1276.96 2296.38,-1276.96 2296.38,-1216.96 1955.38,-1216.96"/>
<polygon fill="none" stroke="#29235c" points="1955.38,-1216.96 1955.38,-1276.96 2296.38,-1276.96 2296.38,-1216.96 1955.38,-1216.96"/>
<text text-anchor="start" x="1966.38" y="-1237.16" font-family="Helvetica,sans-Serif" font-size="32.00" fill="#29235c">street &#160;&#160;&#160;</text>
<text text-anchor="start" x="2128.95" y="-1238.16" font-family="Helvetica,sans-Serif" font-style="italic" font-size="32.00" fill="#29235c">VARCHAR</text>
<polygon fill="#e7e2dd" stroke="transparent" points="1955.38,-1156.96 1955.38,-1216.96 2296.38,-1216.96 2296.38,-1156.96 1955.38,-1156.96"/>
<polygon fill="none" stroke="#29235c" points="1955.38,-1156.96 1955.38,-1216.96 2296.38,-1216.96 2296.38,-1156.96 1955.38,-1156.96"/>
<text text-anchor="start" x="1966.38" y="-1177.16" font-family="Helvetica,sans-Serif" font-size="32.00" fill="#29235c">city &#160;&#160;&#160;</text>
<text text-anchor="start" x="2128.95" y="-1178.16" font-family="Helvetica,sans-Serif" font-style="italic" font-size="32.00" fill="#29235c">VARCHAR</text>
<polygon fill="#e7e2dd" stroke="transparent" points="1955.38,-1096.96 1955.38,-1156.96 2296.38,-1156.96 2296.38,-1096.96 1955.38,-1096.96"/>
<polygon fill="none" stroke="#29235c" points="1955.38,-1096.96 1955.38,-1156.96 2296.38,-1156.96 2296.38,-1096.96 1955.38,-1096.96"/>
<text text-anchor="start" x="1966.38" y="-1117.16" font-family="Helvetica,sans-Serif" font-size="32.00" fill="#29235c">state &#160;&#160;&#160;</text>
<text text-anchor="start" x="2128.95" y="-1118.16" font-family="Helvetica,sans-Serif" font-style="italic" font-size="32.00" fill="#29235c">VARCHAR</text>
<polygon fill="#e7e2dd" stroke="transparent" points="1955.38,-1036.96 1955.38,-1096.96 2296.38,-1096.96 2296.38,-1036.96 1955.38,-1036.96"/>
<polygon fill="none" stroke="#29235c" points="1955.38,-1036.96 1955.38,-1096.96 2296.38,-1096.96 2296.38,-1036.96 1955.38,-1036.96"/>
<text text-anchor="start" x="1966.07" y="-1057.16" font-family="Helvetica,sans-Serif" font-size="32.00" fill="#29235c">zip_code &#160;&#160;&#160;</text>
<text text-anchor="start" x="2129.16" y="-1058.16" font-family="Helvetica,sans-Serif" font-style="italic" font-size="32.00" fill="#29235c">VARCHAR</text>
<polygon fill="none" stroke="#29235c" stroke-width="2" points="1953.88,-1035.96 1953.88,-1397.96 2296.88,-1397.96 2296.88,-1035.96 1953.88,-1035.96"/>
</g>
<!-- Customer -->
<g id="Customer" class="node">
<title>Customer</title>
<ellipse fill="none" stroke="black" stroke-width="0" cx="1582.38" cy="-1216.96" rx="254.62" ry="257.27"/>
<polygon fill="#1d71b8" stroke="transparent" points="1404.38,-1336.96 1404.38,-1396.96 1760.38,-1396.96 1760.38,-1336.96 1404.38,-1336.96"/>
<polygon fill="none" stroke="#29235c" points="1404.38,-1336.96 1404.38,-1396.96 1760.38,-1396.96 1760.38,-1336.96 1404.38,-1336.96"/>
<text text-anchor="start" x="1450.8" y="-1358.16" font-family="Helvetica,sans-Serif" font-weight="bold" font-size="32.00" fill="#ffffff"> &#160;&#160;&#160;&#160;&#160;&#160;Customer &#160;&#160;&#160;&#160;&#160;&#160;</text>
<polygon fill="#e7e2dd" stroke="transparent" points="1404.38,-1276.96 1404.38,-1336.96 1760.38,-1336.96 1760.38,-1276.96 1404.38,-1276.96"/>
<polygon fill="none" stroke="#29235c" points="1404.38,-1276.96 1404.38,-1336.96 1760.38,-1336.96 1760.38,-1276.96 1404.38,-1276.96"/>
<text text-anchor="start" x="1415.38" y="-1298.16" font-family="Helvetica,sans-Serif" font-weight="bold" font-size="32.00" fill="#29235c">id</text>
<text text-anchor="start" x="1440.27" y="-1298.16" font-family="Helvetica,sans-Serif" font-size="32.00" fill="#29235c"> &#160;&#160;&#160;</text>
<text text-anchor="start" x="1607.16" y="-1298.16" font-family="Helvetica,sans-Serif" font-style="italic" font-size="32.00" fill="#29235c">INTEGER</text>
<polygon fill="#e7e2dd" stroke="transparent" points="1404.38,-1216.96 1404.38,-1276.96 1760.38,-1276.96 1760.38,-1216.96 1404.38,-1216.96"/>
<polygon fill="none" stroke="#29235c" points="1404.38,-1216.96 1404.38,-1276.96 1760.38,-1276.96 1760.38,-1216.96 1404.38,-1216.96"/>
<text text-anchor="start" x="1415.38" y="-1237.16" font-family="Helvetica,sans-Serif" font-size="32.00" fill="#29235c">name &#160;&#160;&#160;</text>
<text text-anchor="start" x="1592.95" y="-1238.16" font-family="Helvetica,sans-Serif" font-style="italic" font-size="32.00" fill="#29235c">VARCHAR</text>
<polygon fill="#e7e2dd" stroke="transparent" points="1404.38,-1156.96 1404.38,-1216.96 1760.38,-1216.96 1760.38,-1156.96 1404.38,-1156.96"/>
<polygon fill="none" stroke="#29235c" points="1404.38,-1156.96 1404.38,-1216.96 1760.38,-1216.96 1760.38,-1156.96 1404.38,-1156.96"/>
<text text-anchor="start" x="1415.38" y="-1177.16" font-family="Helvetica,sans-Serif" font-size="32.00" fill="#29235c">email &#160;&#160;&#160;</text>
<text text-anchor="start" x="1592.95" y="-1178.16" font-family="Helvetica,sans-Serif" font-style="italic" font-size="32.00" fill="#29235c">VARCHAR</text>
<polygon fill="#e7e2dd" stroke="transparent" points="1404.38,-1096.96 1404.38,-1156.96 1760.38,-1156.96 1760.38,-1096.96 1404.38,-1096.96"/>
<polygon fill="none" stroke="#29235c" points="1404.38,-1096.96 1404.38,-1156.96 1760.38,-1156.96 1760.38,-1096.96 1404.38,-1096.96"/>
<text text-anchor="start" x="1415.38" y="-1117.16" font-family="Helvetica,sans-Serif" font-size="32.00" fill="#29235c">phone &#160;&#160;&#160;</text>
<text text-anchor="start" x="1592.95" y="-1118.16" font-family="Helvetica,sans-Serif" font-style="italic" font-size="32.00" fill="#29235c">VARCHAR</text>
<polygon fill="#e7e2dd" stroke="transparent" points="1404.38,-1036.96 1404.38,-1096.96 1760.38,-1096.96 1760.38,-1036.96 1404.38,-1036.96"/>
<polygon fill="none" stroke="#29235c" points="1404.38,-1036.96 1404.38,-1096.96 1760.38,-1096.96 1760.38,-1036.96 1404.38,-1036.96"/>
<text text-anchor="start" x="1415.35" y="-1057.16" font-family="Helvetica,sans-Serif" font-size="32.00" fill="#29235c">address_id &#160;&#160;&#160;</text>
<text text-anchor="start" x="1607.27" y="-1058.16" font-family="Helvetica,sans-Serif" font-style="italic" font-size="32.00" fill="#29235c">INTEGER</text>
<polygon fill="none" stroke="#29235c" stroke-width="2" points="1403.38,-1035.96 1403.38,-1397.96 1761.38,-1397.96 1761.38,-1035.96 1403.38,-1035.96"/>
</g>
<!-- Customer&#45;&gt;Address -->
<!-- Customer&#45;&gt;Address -->
<g id="edge2" class="edge">
<title>Customer:e&#45;&gt;Address:w</title>
<path fill="none" stroke="#29235c" stroke-width="3" d="M1761.38,-1066.96C1894.78,-1066.96 1821.46,-1294.93 1944.36,-1306.5"/>
<polygon fill="#29235c" stroke="#29235c" stroke-width="3" points="1944.23,-1310 1954.38,-1306.96 1944.55,-1303.01 1944.23,-1310"/>
<text text-anchor="middle" x="1960.6" y="-1316.56" font-family="Helvetica,sans-Serif" font-size="32.00" fill="#29235c">*</text>
<text text-anchor="middle" x="1770.27" y="-1076.56" font-family="Helvetica,sans-Serif" font-size="32.00" fill="#29235c">1</text>
</g>
<!-- CustomerCustomerType -->
<g id="CustomerCustomerType" class="node">
<title>CustomerCustomerType</title>
<ellipse fill="none" stroke="black" stroke-width="0" cx="931.2" cy="-2184.96" rx="352.28" ry="172.57"/>
<polygon fill="#1d71b8" stroke="transparent" points="684.2,-2244.96 684.2,-2304.96 1178.2,-2304.96 1178.2,-2244.96 684.2,-2244.96"/>
<polygon fill="none" stroke="#29235c" points="684.2,-2244.96 684.2,-2304.96 1178.2,-2304.96 1178.2,-2244.96 684.2,-2244.96"/>
<text text-anchor="start" x="694.72" y="-2266.16" font-family="Helvetica,sans-Serif" font-weight="bold" font-size="32.00" fill="#ffffff"> &#160;&#160;&#160;&#160;&#160;&#160;CustomerCustomerType &#160;&#160;&#160;&#160;&#160;&#160;</text>
<polygon fill="#e7e2dd" stroke="transparent" points="684.2,-2184.96 684.2,-2244.96 1178.2,-2244.96 1178.2,-2184.96 684.2,-2184.96"/>
<polygon fill="none" stroke="#29235c" points="684.2,-2184.96 684.2,-2244.96 1178.2,-2244.96 1178.2,-2184.96 684.2,-2184.96"/>
<text text-anchor="start" x="695.2" y="-2206.16" font-family="Helvetica,sans-Serif" font-weight="bold" font-size="32.00" fill="#29235c">id</text>
<text text-anchor="start" x="720.09" y="-2206.16" font-family="Helvetica,sans-Serif" font-size="32.00" fill="#29235c"> &#160;&#160;&#160;</text>
<text text-anchor="start" x="1024.98" y="-2206.16" font-family="Helvetica,sans-Serif" font-style="italic" font-size="32.00" fill="#29235c">INTEGER</text>
<polygon fill="#e7e2dd" stroke="transparent" points="684.2,-2124.96 684.2,-2184.96 1178.2,-2184.96 1178.2,-2124.96 684.2,-2124.96"/>
<polygon fill="none" stroke="#29235c" points="684.2,-2124.96 684.2,-2184.96 1178.2,-2184.96 1178.2,-2124.96 684.2,-2124.96"/>
<text text-anchor="start" x="695.2" y="-2145.16" font-family="Helvetica,sans-Serif" font-size="32.00" fill="#29235c">customer_id &#160;&#160;&#160;</text>
<text text-anchor="start" x="1024.98" y="-2146.16" font-family="Helvetica,sans-Serif" font-style="italic" font-size="32.00" fill="#29235c">INTEGER</text>
<polygon fill="#e7e2dd" stroke="transparent" points="684.2,-2064.96 684.2,-2124.96 1178.2,-2124.96 1178.2,-2064.96 684.2,-2064.96"/>
<polygon fill="none" stroke="#29235c" points="684.2,-2064.96 684.2,-2124.96 1178.2,-2124.96 1178.2,-2064.96 684.2,-2064.96"/>
<text text-anchor="start" x="695.2" y="-2085.16" font-family="Helvetica,sans-Serif" font-size="32.00" fill="#29235c">customer_type_id &#160;&#160;&#160;</text>
<text text-anchor="start" x="1024.98" y="-2086.16" font-family="Helvetica,sans-Serif" font-style="italic" font-size="32.00" fill="#29235c">INTEGER</text>
<polygon fill="none" stroke="#29235c" stroke-width="2" points="683.2,-2063.96 683.2,-2305.96 1179.2,-2305.96 1179.2,-2063.96 683.2,-2063.96"/>
</g>
<!-- CustomerCustomerType&#45;&gt;Customer -->
<!-- CustomerCustomerType&#45;&gt;Customer -->
<g id="edge4" class="edge">
<title>CustomerCustomerType:e&#45;&gt;Customer:w</title>
<path fill="none" stroke="#29235c" stroke-width="3" d="M1179.2,-2154.96C1261.09,-2154.96 1252.53,-2078.83 1283.34,-2002.96 1341.06,-1860.81 1250.66,-1331.49 1393.18,-1307.78"/>
<polygon fill="#29235c" stroke="#29235c" stroke-width="3" points="1393.69,-1311.25 1403.38,-1306.96 1393.13,-1304.28 1393.69,-1311.25"/>
<text text-anchor="middle" x="1409.6" y="-1316.56" font-family="Helvetica,sans-Serif" font-size="32.00" fill="#29235c">*</text>
<text text-anchor="middle" x="1170.3" y="-2164.56" font-family="Helvetica,sans-Serif" font-size="32.00" fill="#29235c">1</text>
</g>
<!-- CustomerType -->
<g id="CustomerType" class="node">
<title>CustomerType</title>
<ellipse fill="none" stroke="black" stroke-width="0" cx="1582.38" cy="-2214.96" rx="263.09" ry="130.22"/>
<polygon fill="#1d71b8" stroke="transparent" points="1398.38,-2244.96 1398.38,-2304.96 1766.38,-2304.96 1766.38,-2244.96 1398.38,-2244.96"/>
<polygon fill="none" stroke="#29235c" points="1398.38,-2244.96 1398.38,-2304.96 1766.38,-2304.96 1766.38,-2244.96 1398.38,-2244.96"/>
<text text-anchor="start" x="1415.23" y="-2266.16" font-family="Helvetica,sans-Serif" font-weight="bold" font-size="32.00" fill="#ffffff"> &#160;&#160;&#160;&#160;&#160;&#160;CustomerType &#160;&#160;&#160;&#160;&#160;&#160;</text>
<polygon fill="#e7e2dd" stroke="transparent" points="1398.38,-2184.96 1398.38,-2244.96 1766.38,-2244.96 1766.38,-2184.96 1398.38,-2184.96"/>
<polygon fill="none" stroke="#29235c" points="1398.38,-2184.96 1398.38,-2244.96 1766.38,-2244.96 1766.38,-2184.96 1398.38,-2184.96"/>
<text text-anchor="start" x="1409.38" y="-2206.16" font-family="Helvetica,sans-Serif" font-weight="bold" font-size="32.00" fill="#29235c">id</text>
<text text-anchor="start" x="1434.27" y="-2206.16" font-family="Helvetica,sans-Serif" font-size="32.00" fill="#29235c"> &#160;&#160;&#160;</text>
<text text-anchor="start" x="1613.16" y="-2206.16" font-family="Helvetica,sans-Serif" font-style="italic" font-size="32.00" fill="#29235c">INTEGER</text>
<polygon fill="#e7e2dd" stroke="transparent" points="1398.38,-2124.96 1398.38,-2184.96 1766.38,-2184.96 1766.38,-2124.96 1398.38,-2124.96"/>
<polygon fill="none" stroke="#29235c" points="1398.38,-2124.96 1398.38,-2184.96 1766.38,-2184.96 1766.38,-2124.96 1398.38,-2124.96"/>
<text text-anchor="start" x="1409.25" y="-2145.16" font-family="Helvetica,sans-Serif" font-size="32.00" fill="#29235c">description &#160;&#160;&#160;</text>
<text text-anchor="start" x="1599.17" y="-2146.16" font-family="Helvetica,sans-Serif" font-style="italic" font-size="32.00" fill="#29235c">VARCHAR</text>
<polygon fill="none" stroke="#29235c" stroke-width="2" points="1397.38,-2123.96 1397.38,-2305.96 1767.38,-2305.96 1767.38,-2123.96 1397.38,-2123.96"/>
</g>
<!-- CustomerCustomerType&#45;&gt;CustomerType -->
<!-- CustomerCustomerType&#45;&gt;CustomerType -->
<g id="edge6" class="edge">
<title>CustomerCustomerType:e&#45;&gt;CustomerType:w</title>
<path fill="none" stroke="#29235c" stroke-width="3" d="M1179.2,-2094.96C1286.41,-2094.96 1286.8,-2207.58 1387.33,-2214.62"/>
<polygon fill="#29235c" stroke="#29235c" stroke-width="3" points="1387.27,-2218.12 1397.38,-2214.96 1387.51,-2211.12 1387.27,-2218.12"/>
<text text-anchor="middle" x="1403.6" y="-2224.56" font-family="Helvetica,sans-Serif" font-size="32.00" fill="#29235c">*</text>
<text text-anchor="middle" x="1170.3" y="-2104.56" font-family="Helvetica,sans-Serif" font-size="32.00" fill="#29235c">1</text>
</g>
<!-- Employee -->
<g id="Employee" class="node">
<title>Employee</title>
<ellipse fill="none" stroke="black" stroke-width="0" cx="931.2" cy="-1736.96" rx="258.6" ry="257.27"/>
<polygon fill="#1d71b8" stroke="transparent" points="750.2,-1856.96 750.2,-1916.96 1112.2,-1916.96 1112.2,-1856.96 750.2,-1856.96"/>
<polygon fill="none" stroke="#29235c" points="750.2,-1856.96 750.2,-1916.96 1112.2,-1916.96 1112.2,-1856.96 750.2,-1856.96"/>
<text text-anchor="start" x="797.82" y="-1878.16" font-family="Helvetica,sans-Serif" font-weight="bold" font-size="32.00" fill="#ffffff"> &#160;&#160;&#160;&#160;&#160;&#160;Employee &#160;&#160;&#160;&#160;&#160;&#160;</text>
<polygon fill="#e7e2dd" stroke="transparent" points="750.2,-1796.96 750.2,-1856.96 1112.2,-1856.96 1112.2,-1796.96 750.2,-1796.96"/>
<polygon fill="none" stroke="#29235c" points="750.2,-1796.96 750.2,-1856.96 1112.2,-1856.96 1112.2,-1796.96 750.2,-1796.96"/>
<text text-anchor="start" x="761.2" y="-1818.16" font-family="Helvetica,sans-Serif" font-weight="bold" font-size="32.00" fill="#29235c">id</text>
<text text-anchor="start" x="786.09" y="-1818.16" font-family="Helvetica,sans-Serif" font-size="32.00" fill="#29235c"> &#160;&#160;&#160;</text>
<text text-anchor="start" x="958.98" y="-1818.16" font-family="Helvetica,sans-Serif" font-style="italic" font-size="32.00" fill="#29235c">INTEGER</text>
<polygon fill="#e7e2dd" stroke="transparent" points="750.2,-1736.96 750.2,-1796.96 1112.2,-1796.96 1112.2,-1736.96 750.2,-1736.96"/>
<polygon fill="none" stroke="#29235c" points="750.2,-1736.96 750.2,-1796.96 1112.2,-1796.96 1112.2,-1736.96 750.2,-1736.96"/>
<text text-anchor="start" x="760.74" y="-1757.16" font-family="Helvetica,sans-Serif" font-size="32.00" fill="#29235c">first_name &#160;&#160;&#160;</text>
<text text-anchor="start" x="944.98" y="-1758.16" font-family="Helvetica,sans-Serif" font-style="italic" font-size="32.00" fill="#29235c">VARCHAR</text>
<polygon fill="#e7e2dd" stroke="transparent" points="750.2,-1676.96 750.2,-1736.96 1112.2,-1736.96 1112.2,-1676.96 750.2,-1676.96"/>
<polygon fill="none" stroke="#29235c" points="750.2,-1676.96 750.2,-1736.96 1112.2,-1736.96 1112.2,-1676.96 750.2,-1676.96"/>
<text text-anchor="start" x="761.2" y="-1697.16" font-family="Helvetica,sans-Serif" font-size="32.00" fill="#29235c">last_name &#160;&#160;&#160;</text>
<text text-anchor="start" x="944.98" y="-1698.16" font-family="Helvetica,sans-Serif" font-style="italic" font-size="32.00" fill="#29235c">VARCHAR</text>
<polygon fill="#e7e2dd" stroke="transparent" points="750.2,-1616.96 750.2,-1676.96 1112.2,-1676.96 1112.2,-1616.96 750.2,-1616.96"/>
<polygon fill="none" stroke="#29235c" points="750.2,-1616.96 750.2,-1676.96 1112.2,-1676.96 1112.2,-1616.96 750.2,-1616.96"/>
<text text-anchor="start" x="761.2" y="-1637.16" font-family="Helvetica,sans-Serif" font-size="32.00" fill="#29235c">email &#160;&#160;&#160;</text>
<text text-anchor="start" x="944.77" y="-1638.16" font-family="Helvetica,sans-Serif" font-style="italic" font-size="32.00" fill="#29235c">VARCHAR</text>
<polygon fill="#e7e2dd" stroke="transparent" points="750.2,-1556.96 750.2,-1616.96 1112.2,-1616.96 1112.2,-1556.96 750.2,-1556.96"/>
<polygon fill="none" stroke="#29235c" points="750.2,-1556.96 750.2,-1616.96 1112.2,-1616.96 1112.2,-1556.96 750.2,-1556.96"/>
<text text-anchor="start" x="761.2" y="-1577.16" font-family="Helvetica,sans-Serif" font-size="32.00" fill="#29235c">phone &#160;&#160;&#160;</text>
<text text-anchor="start" x="944.77" y="-1578.16" font-family="Helvetica,sans-Serif" font-style="italic" font-size="32.00" fill="#29235c">VARCHAR</text>
<polygon fill="none" stroke="#29235c" stroke-width="2" points="749.2,-1555.96 749.2,-1917.96 1113.2,-1917.96 1113.2,-1555.96 749.2,-1555.96"/>
</g>
<!-- EmployeeOrder -->
<g id="EmployeeOrder" class="node">
<title>EmployeeOrder</title>
<ellipse fill="none" stroke="black" stroke-width="0" cx="271.53" cy="-1735.96" rx="271.56" ry="172.57"/>
<polygon fill="#1d71b8" stroke="transparent" points="81.53,-1795.96 81.53,-1855.96 461.53,-1855.96 461.53,-1795.96 81.53,-1795.96"/>
<polygon fill="none" stroke="#29235c" points="81.53,-1795.96 81.53,-1855.96 461.53,-1855.96 461.53,-1795.96 81.53,-1795.96"/>
<text text-anchor="start" x="97.27" y="-1817.16" font-family="Helvetica,sans-Serif" font-weight="bold" font-size="32.00" fill="#ffffff"> &#160;&#160;&#160;&#160;&#160;&#160;EmployeeOrder &#160;&#160;&#160;&#160;&#160;&#160;</text>
<polygon fill="#e7e2dd" stroke="transparent" points="81.53,-1735.96 81.53,-1795.96 461.53,-1795.96 461.53,-1735.96 81.53,-1735.96"/>
<polygon fill="none" stroke="#29235c" points="81.53,-1735.96 81.53,-1795.96 461.53,-1795.96 461.53,-1735.96 81.53,-1735.96"/>
<text text-anchor="start" x="92.53" y="-1757.16" font-family="Helvetica,sans-Serif" font-weight="bold" font-size="32.00" fill="#29235c">id</text>
<text text-anchor="start" x="117.42" y="-1757.16" font-family="Helvetica,sans-Serif" font-size="32.00" fill="#29235c"> &#160;&#160;&#160;</text>
<text text-anchor="start" x="308.31" y="-1757.16" font-family="Helvetica,sans-Serif" font-style="italic" font-size="32.00" fill="#29235c">INTEGER</text>
<polygon fill="#e7e2dd" stroke="transparent" points="81.53,-1675.96 81.53,-1735.96 461.53,-1735.96 461.53,-1675.96 81.53,-1675.96"/>
<polygon fill="none" stroke="#29235c" points="81.53,-1675.96 81.53,-1735.96 461.53,-1735.96 461.53,-1675.96 81.53,-1675.96"/>
<text text-anchor="start" x="92.06" y="-1696.16" font-family="Helvetica,sans-Serif" font-size="32.00" fill="#29235c">employee_id &#160;&#160;&#160;</text>
<text text-anchor="start" x="308.42" y="-1697.16" font-family="Helvetica,sans-Serif" font-style="italic" font-size="32.00" fill="#29235c">INTEGER</text>
<polygon fill="#e7e2dd" stroke="transparent" points="81.53,-1615.96 81.53,-1675.96 461.53,-1675.96 461.53,-1615.96 81.53,-1615.96"/>
<polygon fill="none" stroke="#29235c" points="81.53,-1615.96 81.53,-1675.96 461.53,-1675.96 461.53,-1615.96 81.53,-1615.96"/>
<text text-anchor="start" x="92.53" y="-1636.16" font-family="Helvetica,sans-Serif" font-size="32.00" fill="#29235c">order_id &#160;&#160;&#160;</text>
<text text-anchor="start" x="308.31" y="-1637.16" font-family="Helvetica,sans-Serif" font-style="italic" font-size="32.00" fill="#29235c">INTEGER</text>
<polygon fill="none" stroke="#29235c" stroke-width="2" points="80.53,-1614.96 80.53,-1856.96 462.53,-1856.96 462.53,-1614.96 80.53,-1614.96"/>
</g>
<!-- EmployeeOrder&#45;&gt;Employee -->
<!-- EmployeeOrder&#45;&gt;Employee -->
<g id="edge8" class="edge">
<title>EmployeeOrder:e&#45;&gt;Employee:w</title>
<path fill="none" stroke="#29235c" stroke-width="3" d="M462.53,-1705.96C597.31,-1705.96 610.31,-1820.89 738.91,-1826.73"/>
<polygon fill="#29235c" stroke="#29235c" stroke-width="3" points="739.12,-1830.24 749.2,-1826.96 739.28,-1823.24 739.12,-1830.24"/>
<text text-anchor="middle" x="742.97" y="-1836.56" font-family="Helvetica,sans-Serif" font-size="32.00" fill="#29235c">*</text>
<text text-anchor="middle" x="471.42" y="-1715.56" font-family="Helvetica,sans-Serif" font-size="32.00" fill="#29235c">1</text>
</g>
<!-- Order -->
<g id="Order" class="node">
<title>Order</title>
<ellipse fill="none" stroke="black" stroke-width="0" cx="931.2" cy="-1246.96" rx="292.98" ry="214.92"/>
<polygon fill="#1d71b8" stroke="transparent" points="726.2,-1336.96 726.2,-1396.96 1136.2,-1396.96 1136.2,-1336.96 726.2,-1336.96"/>
<polygon fill="none" stroke="#29235c" points="726.2,-1336.96 726.2,-1396.96 1136.2,-1396.96 1136.2,-1336.96 726.2,-1336.96"/>
<text text-anchor="start" x="828.06" y="-1358.16" font-family="Helvetica,sans-Serif" font-weight="bold" font-size="32.00" fill="#ffffff"> &#160;&#160;&#160;&#160;&#160;&#160;Order &#160;&#160;&#160;&#160;&#160;&#160;</text>
<polygon fill="#e7e2dd" stroke="transparent" points="726.2,-1276.96 726.2,-1336.96 1136.2,-1336.96 1136.2,-1276.96 726.2,-1276.96"/>
<polygon fill="none" stroke="#29235c" points="726.2,-1276.96 726.2,-1336.96 1136.2,-1336.96 1136.2,-1276.96 726.2,-1276.96"/>
<text text-anchor="start" x="737.2" y="-1298.16" font-family="Helvetica,sans-Serif" font-weight="bold" font-size="32.00" fill="#29235c">id</text>
<text text-anchor="start" x="762.09" y="-1298.16" font-family="Helvetica,sans-Serif" font-size="32.00" fill="#29235c"> &#160;&#160;&#160;</text>
<text text-anchor="start" x="982.98" y="-1298.16" font-family="Helvetica,sans-Serif" font-style="italic" font-size="32.00" fill="#29235c">INTEGER</text>
<polygon fill="#e7e2dd" stroke="transparent" points="726.2,-1216.96 726.2,-1276.96 1136.2,-1276.96 1136.2,-1216.96 726.2,-1216.96"/>
<polygon fill="none" stroke="#29235c" points="726.2,-1216.96 726.2,-1276.96 1136.2,-1276.96 1136.2,-1216.96 726.2,-1216.96"/>
<text text-anchor="start" x="737.2" y="-1237.16" font-family="Helvetica,sans-Serif" font-size="32.00" fill="#29235c">order_date &#160;&#160;&#160;</text>
<text text-anchor="start" x="963.43" y="-1238.16" font-family="Helvetica,sans-Serif" font-style="italic" font-size="32.00" fill="#29235c">DATETIME</text>
<polygon fill="#e7e2dd" stroke="transparent" points="726.2,-1156.96 726.2,-1216.96 1136.2,-1216.96 1136.2,-1156.96 726.2,-1156.96"/>
<polygon fill="none" stroke="#29235c" points="726.2,-1156.96 726.2,-1216.96 1136.2,-1216.96 1136.2,-1156.96 726.2,-1156.96"/>
<text text-anchor="start" x="736.87" y="-1177.16" font-family="Helvetica,sans-Serif" font-size="32.00" fill="#29235c">shipped_date &#160;&#160;&#160;</text>
<text text-anchor="start" x="963.81" y="-1178.16" font-family="Helvetica,sans-Serif" font-style="italic" font-size="32.00" fill="#29235c">DATETIME</text>
<polygon fill="#e7e2dd" stroke="transparent" points="726.2,-1096.96 726.2,-1156.96 1136.2,-1156.96 1136.2,-1096.96 726.2,-1096.96"/>
<polygon fill="none" stroke="#29235c" points="726.2,-1096.96 726.2,-1156.96 1136.2,-1156.96 1136.2,-1096.96 726.2,-1096.96"/>
<text text-anchor="start" x="737.2" y="-1117.16" font-family="Helvetica,sans-Serif" font-size="32.00" fill="#29235c">customer_id &#160;&#160;&#160;</text>
<text text-anchor="start" x="982.98" y="-1118.16" font-family="Helvetica,sans-Serif" font-style="italic" font-size="32.00" fill="#29235c">INTEGER</text>
<polygon fill="none" stroke="#29235c" stroke-width="2" points="725.2,-1095.96 725.2,-1397.96 1137.2,-1397.96 1137.2,-1095.96 725.2,-1095.96"/>
</g>
<!-- EmployeeOrder&#45;&gt;Order -->
<!-- EmployeeOrder&#45;&gt;Order -->
<g id="edge10" class="edge">
<title>EmployeeOrder:e&#45;&gt;Order:w</title>
<path fill="none" stroke="#29235c" stroke-width="3" d="M462.53,-1645.96C555.97,-1645.96 521.94,-1544.91 579.06,-1470.96 636.58,-1396.49 628.28,-1313.22 715.03,-1307.3"/>
<polygon fill="#29235c" stroke="#29235c" stroke-width="3" points="715.32,-1310.79 725.2,-1306.96 715.09,-1303.79 715.32,-1310.79"/>
<text text-anchor="middle" x="718.97" y="-1316.56" font-family="Helvetica,sans-Serif" font-size="32.00" fill="#29235c">*</text>
<text text-anchor="middle" x="471.42" y="-1655.56" font-family="Helvetica,sans-Serif" font-size="32.00" fill="#29235c">1</text>
</g>
<!-- Order&#45;&gt;Customer -->
<!-- Order&#45;&gt;Customer -->
<g id="edge12" class="edge">
<title>Order:e&#45;&gt;Customer:w</title>
<path fill="none" stroke="#29235c" stroke-width="3" d="M1137.2,-1126.96C1276.52,-1126.96 1261.42,-1298.28 1393.21,-1306.64"/>
<polygon fill="#29235c" stroke="#29235c" stroke-width="3" points="1393.28,-1310.15 1403.38,-1306.96 1393.49,-1303.15 1393.28,-1310.15"/>
<text text-anchor="middle" x="1409.6" y="-1278.16" font-family="Helvetica,sans-Serif" font-size="32.00" fill="#29235c">*</text>
<text text-anchor="middle" x="1128.3" y="-1136.56" font-family="Helvetica,sans-Serif" font-size="32.00" fill="#29235c">1</text>
</g>
<!-- OrderItem -->
<g id="OrderItem" class="node">
<title>OrderItem</title>
<ellipse fill="none" stroke="black" stroke-width="0" cx="271.53" cy="-1225.96" rx="248.8" ry="257.27"/>
<polygon fill="#1d71b8" stroke="transparent" points="97.53,-1345.96 97.53,-1405.96 445.53,-1405.96 445.53,-1345.96 97.53,-1345.96"/>
<polygon fill="none" stroke="#29235c" points="97.53,-1345.96 97.53,-1405.96 445.53,-1405.96 445.53,-1345.96 97.53,-1345.96"/>
<text text-anchor="start" x="137.28" y="-1367.16" font-family="Helvetica,sans-Serif" font-weight="bold" font-size="32.00" fill="#ffffff"> &#160;&#160;&#160;&#160;&#160;&#160;OrderItem &#160;&#160;&#160;&#160;&#160;&#160;</text>
<polygon fill="#e7e2dd" stroke="transparent" points="97.53,-1285.96 97.53,-1345.96 445.53,-1345.96 445.53,-1285.96 97.53,-1285.96"/>
<polygon fill="none" stroke="#29235c" points="97.53,-1285.96 97.53,-1345.96 445.53,-1345.96 445.53,-1285.96 97.53,-1285.96"/>
<text text-anchor="start" x="108.53" y="-1307.16" font-family="Helvetica,sans-Serif" font-weight="bold" font-size="32.00" fill="#29235c">id</text>
<text text-anchor="start" x="133.42" y="-1307.16" font-family="Helvetica,sans-Serif" font-size="32.00" fill="#29235c"> &#160;&#160;&#160;</text>
<text text-anchor="start" x="292.31" y="-1307.16" font-family="Helvetica,sans-Serif" font-style="italic" font-size="32.00" fill="#29235c">INTEGER</text>
<polygon fill="#e7e2dd" stroke="transparent" points="97.53,-1225.96 97.53,-1285.96 445.53,-1285.96 445.53,-1225.96 97.53,-1225.96"/>
<polygon fill="none" stroke="#29235c" points="97.53,-1225.96 97.53,-1285.96 445.53,-1285.96 445.53,-1225.96 97.53,-1225.96"/>
<text text-anchor="start" x="108.53" y="-1246.16" font-family="Helvetica,sans-Serif" font-size="32.00" fill="#29235c">order_id &#160;&#160;&#160;</text>
<text text-anchor="start" x="292.31" y="-1247.16" font-family="Helvetica,sans-Serif" font-style="italic" font-size="32.00" fill="#29235c">INTEGER</text>
<polygon fill="#e7e2dd" stroke="transparent" points="97.53,-1165.96 97.53,-1225.96 445.53,-1225.96 445.53,-1165.96 97.53,-1165.96"/>
<polygon fill="none" stroke="#29235c" points="97.53,-1165.96 97.53,-1225.96 445.53,-1225.96 445.53,-1165.96 97.53,-1165.96"/>
<text text-anchor="start" x="108.05" y="-1186.16" font-family="Helvetica,sans-Serif" font-size="32.00" fill="#29235c">product_id &#160;&#160;&#160;</text>
<text text-anchor="start" x="292.42" y="-1187.16" font-family="Helvetica,sans-Serif" font-style="italic" font-size="32.00" fill="#29235c">INTEGER</text>
<polygon fill="#e7e2dd" stroke="transparent" points="97.53,-1105.96 97.53,-1165.96 445.53,-1165.96 445.53,-1105.96 97.53,-1105.96"/>
<polygon fill="none" stroke="#29235c" points="97.53,-1105.96 97.53,-1165.96 445.53,-1165.96 445.53,-1105.96 97.53,-1105.96"/>
<text text-anchor="start" x="108.53" y="-1126.16" font-family="Helvetica,sans-Serif" font-size="32.00" fill="#29235c">quantity &#160;&#160;&#160;</text>
<text text-anchor="start" x="292.31" y="-1127.16" font-family="Helvetica,sans-Serif" font-style="italic" font-size="32.00" fill="#29235c">INTEGER</text>
<polygon fill="#e7e2dd" stroke="transparent" points="97.53,-1045.96 97.53,-1105.96 445.53,-1105.96 445.53,-1045.96 97.53,-1045.96"/>
<polygon fill="none" stroke="#29235c" points="97.53,-1045.96 97.53,-1105.96 445.53,-1105.96 445.53,-1045.96 97.53,-1045.96"/>
<text text-anchor="start" x="108.53" y="-1066.16" font-family="Helvetica,sans-Serif" font-size="32.00" fill="#29235c">unit_price &#160;&#160;&#160;</text>
<text text-anchor="start" x="331.41" y="-1067.16" font-family="Helvetica,sans-Serif" font-style="italic" font-size="32.00" fill="#29235c">FLOAT</text>
<polygon fill="none" stroke="#29235c" stroke-width="2" points="96.53,-1044.96 96.53,-1406.96 446.53,-1406.96 446.53,-1044.96 96.53,-1044.96"/>
</g>
<!-- OrderItem&#45;&gt;Order -->
<!-- OrderItem&#45;&gt;Order -->
<g id="edge14" class="edge">
<title>OrderItem:e&#45;&gt;Order:w</title>
<path fill="none" stroke="#29235c" stroke-width="3" d="M446.53,-1255.96C569,-1255.96 597.75,-1304.21 715.09,-1306.85"/>
<polygon fill="#29235c" stroke="#29235c" stroke-width="3" points="715.16,-1310.35 725.2,-1306.96 715.24,-1303.35 715.16,-1310.35"/>
<text text-anchor="middle" x="718.97" y="-1278.16" font-family="Helvetica,sans-Serif" font-size="32.00" fill="#29235c">*</text>
<text text-anchor="middle" x="455.42" y="-1265.56" font-family="Helvetica,sans-Serif" font-size="32.00" fill="#29235c">1</text>
</g>
<!-- Product -->
<g id="Product" class="node">
<title>Product</title>
<ellipse fill="none" stroke="black" stroke-width="0" cx="931.2" cy="-722.96" rx="263.09" ry="214.92"/>
<polygon fill="#1d71b8" stroke="transparent" points="747.2,-812.96 747.2,-872.96 1115.2,-872.96 1115.2,-812.96 747.2,-812.96"/>
<polygon fill="none" stroke="#29235c" points="747.2,-812.96 747.2,-872.96 1115.2,-872.96 1115.2,-812.96 747.2,-812.96"/>
<text text-anchor="start" x="813.82" y="-834.16" font-family="Helvetica,sans-Serif" font-weight="bold" font-size="32.00" fill="#ffffff"> &#160;&#160;&#160;&#160;&#160;&#160;Product &#160;&#160;&#160;&#160;&#160;&#160;</text>
<polygon fill="#e7e2dd" stroke="transparent" points="747.2,-752.96 747.2,-812.96 1115.2,-812.96 1115.2,-752.96 747.2,-752.96"/>
<polygon fill="none" stroke="#29235c" points="747.2,-752.96 747.2,-812.96 1115.2,-812.96 1115.2,-752.96 747.2,-752.96"/>
<text text-anchor="start" x="758.2" y="-774.16" font-family="Helvetica,sans-Serif" font-weight="bold" font-size="32.00" fill="#29235c">id</text>
<text text-anchor="start" x="783.09" y="-774.16" font-family="Helvetica,sans-Serif" font-size="32.00" fill="#29235c"> &#160;&#160;&#160;</text>
<text text-anchor="start" x="961.98" y="-774.16" font-family="Helvetica,sans-Serif" font-style="italic" font-size="32.00" fill="#29235c">INTEGER</text>
<polygon fill="#e7e2dd" stroke="transparent" points="747.2,-692.96 747.2,-752.96 1115.2,-752.96 1115.2,-692.96 747.2,-692.96"/>
<polygon fill="none" stroke="#29235c" points="747.2,-692.96 747.2,-752.96 1115.2,-752.96 1115.2,-692.96 747.2,-692.96"/>
<text text-anchor="start" x="758.2" y="-713.16" font-family="Helvetica,sans-Serif" font-size="32.00" fill="#29235c">name &#160;&#160;&#160;</text>
<text text-anchor="start" x="947.77" y="-714.16" font-family="Helvetica,sans-Serif" font-style="italic" font-size="32.00" fill="#29235c">VARCHAR</text>
<polygon fill="#e7e2dd" stroke="transparent" points="747.2,-632.96 747.2,-692.96 1115.2,-692.96 1115.2,-632.96 747.2,-632.96"/>
<polygon fill="none" stroke="#29235c" points="747.2,-632.96 747.2,-692.96 1115.2,-692.96 1115.2,-632.96 747.2,-632.96"/>
<text text-anchor="start" x="758.07" y="-653.16" font-family="Helvetica,sans-Serif" font-size="32.00" fill="#29235c">description &#160;&#160;&#160;</text>
<text text-anchor="start" x="947.98" y="-654.16" font-family="Helvetica,sans-Serif" font-style="italic" font-size="32.00" fill="#29235c">VARCHAR</text>
<polygon fill="#e7e2dd" stroke="transparent" points="747.2,-572.96 747.2,-632.96 1115.2,-632.96 1115.2,-572.96 747.2,-572.96"/>
<polygon fill="none" stroke="#29235c" points="747.2,-572.96 747.2,-632.96 1115.2,-632.96 1115.2,-572.96 747.2,-572.96"/>
<text text-anchor="start" x="758.2" y="-593.16" font-family="Helvetica,sans-Serif" font-size="32.00" fill="#29235c">price &#160;&#160;&#160;</text>
<text text-anchor="start" x="1001.08" y="-594.16" font-family="Helvetica,sans-Serif" font-style="italic" font-size="32.00" fill="#29235c">FLOAT</text>
<polygon fill="none" stroke="#29235c" stroke-width="2" points="746.2,-571.96 746.2,-873.96 1116.2,-873.96 1116.2,-571.96 746.2,-571.96"/>
</g>
<!-- OrderItem&#45;&gt;Product -->
<!-- OrderItem&#45;&gt;Product -->
<g id="edge16" class="edge">
<title>OrderItem:e&#45;&gt;Product:w</title>
<path fill="none" stroke="#29235c" stroke-width="3" d="M446.53,-1195.96C500.35,-1195.96 670.92,-823.84 736.59,-786.05"/>
<polygon fill="#29235c" stroke="#29235c" stroke-width="3" points="737.75,-789.35 746.2,-782.96 735.61,-782.69 737.75,-789.35"/>
<text text-anchor="middle" x="739.97" y="-754.16" font-family="Helvetica,sans-Serif" font-size="32.00" fill="#29235c">*</text>
<text text-anchor="middle" x="455.42" y="-1205.56" font-family="Helvetica,sans-Serif" font-size="32.00" fill="#29235c">1</text>
</g>
<!-- ProductSupplier -->
<g id="ProductSupplier" class="node">
<title>ProductSupplier</title>
<ellipse fill="none" stroke="black" stroke-width="0" cx="271.53" cy="-244.96" rx="267.07" ry="172.57"/>
<polygon fill="#1d71b8" stroke="transparent" points="84.53,-304.96 84.53,-364.96 458.53,-364.96 458.53,-304.96 84.53,-304.96"/>
<polygon fill="none" stroke="#29235c" points="84.53,-304.96 84.53,-364.96 458.53,-364.96 458.53,-304.96 84.53,-304.96"/>
<text text-anchor="start" x="95.48" y="-326.16" font-family="Helvetica,sans-Serif" font-weight="bold" font-size="32.00" fill="#ffffff"> &#160;&#160;&#160;&#160;&#160;&#160;ProductSupplier &#160;&#160;&#160;&#160;&#160;&#160;</text>
<polygon fill="#e7e2dd" stroke="transparent" points="84.53,-244.96 84.53,-304.96 458.53,-304.96 458.53,-244.96 84.53,-244.96"/>
<polygon fill="none" stroke="#29235c" points="84.53,-244.96 84.53,-304.96 458.53,-304.96 458.53,-244.96 84.53,-244.96"/>
<text text-anchor="start" x="95.53" y="-266.16" font-family="Helvetica,sans-Serif" font-weight="bold" font-size="32.00" fill="#29235c">id</text>
<text text-anchor="start" x="120.42" y="-266.16" font-family="Helvetica,sans-Serif" font-size="32.00" fill="#29235c"> &#160;&#160;&#160;</text>
<text text-anchor="start" x="305.31" y="-266.16" font-family="Helvetica,sans-Serif" font-style="italic" font-size="32.00" fill="#29235c">INTEGER</text>
<polygon fill="#e7e2dd" stroke="transparent" points="84.53,-184.96 84.53,-244.96 458.53,-244.96 458.53,-184.96 84.53,-184.96"/>
<polygon fill="none" stroke="#29235c" points="84.53,-184.96 84.53,-244.96 458.53,-244.96 458.53,-184.96 84.53,-184.96"/>
<text text-anchor="start" x="95.53" y="-205.16" font-family="Helvetica,sans-Serif" font-size="32.00" fill="#29235c">product_id &#160;&#160;&#160;</text>
<text text-anchor="start" x="305.31" y="-206.16" font-family="Helvetica,sans-Serif" font-style="italic" font-size="32.00" fill="#29235c">INTEGER</text>
<polygon fill="#e7e2dd" stroke="transparent" points="84.53,-124.96 84.53,-184.96 458.53,-184.96 458.53,-124.96 84.53,-124.96"/>
<polygon fill="none" stroke="#29235c" points="84.53,-124.96 84.53,-184.96 458.53,-184.96 458.53,-124.96 84.53,-124.96"/>
<text text-anchor="start" x="95.53" y="-145.16" font-family="Helvetica,sans-Serif" font-size="32.00" fill="#29235c">supplier_id &#160;&#160;&#160;</text>
<text text-anchor="start" x="305.31" y="-146.16" font-family="Helvetica,sans-Serif" font-style="italic" font-size="32.00" fill="#29235c">INTEGER</text>
<polygon fill="none" stroke="#29235c" stroke-width="2" points="83.53,-123.96 83.53,-365.96 459.53,-365.96 459.53,-123.96 83.53,-123.96"/>
</g>
<!-- ProductSupplier&#45;&gt;Product -->
<!-- ProductSupplier&#45;&gt;Product -->
<g id="edge18" class="edge">
<title>ProductSupplier:e&#45;&gt;Product:w</title>
<path fill="none" stroke="#29235c" stroke-width="3" d="M459.53,-214.96C492.74,-214.96 685.36,-716.26 737.87,-776.97"/>
<polygon fill="#29235c" stroke="#29235c" stroke-width="3" points="736.04,-779.96 746.2,-782.96 740.13,-774.28 736.04,-779.96"/>
<text text-anchor="middle" x="739.97" y="-792.56" font-family="Helvetica,sans-Serif" font-size="32.00" fill="#29235c">*</text>
<text text-anchor="middle" x="468.42" y="-186.16" font-family="Helvetica,sans-Serif" font-size="32.00" fill="#29235c">1</text>
</g>
<!-- Supplier -->
<g id="Supplier" class="node">
<title>Supplier</title>
<ellipse fill="none" stroke="black" stroke-width="0" cx="931.2" cy="-214.96" rx="216.25" ry="214.92"/>
<polygon fill="#1d71b8" stroke="transparent" points="780.2,-304.96 780.2,-364.96 1082.2,-364.96 1082.2,-304.96 780.2,-304.96"/>
<polygon fill="none" stroke="#29235c" points="780.2,-304.96 780.2,-364.96 1082.2,-364.96 1082.2,-304.96 780.2,-304.96"/>
<text text-anchor="start" x="810.27" y="-326.16" font-family="Helvetica,sans-Serif" font-weight="bold" font-size="32.00" fill="#ffffff"> &#160;&#160;&#160;&#160;&#160;&#160;Supplier &#160;&#160;&#160;&#160;&#160;&#160;</text>
<polygon fill="#e7e2dd" stroke="transparent" points="780.2,-244.96 780.2,-304.96 1082.2,-304.96 1082.2,-244.96 780.2,-244.96"/>
<polygon fill="none" stroke="#29235c" points="780.2,-244.96 780.2,-304.96 1082.2,-304.96 1082.2,-244.96 780.2,-244.96"/>
<text text-anchor="start" x="791.2" y="-266.16" font-family="Helvetica,sans-Serif" font-weight="bold" font-size="32.00" fill="#29235c">id</text>
<text text-anchor="start" x="816.09" y="-266.16" font-family="Helvetica,sans-Serif" font-size="32.00" fill="#29235c"> &#160;&#160;&#160;</text>
<text text-anchor="start" x="928.98" y="-266.16" font-family="Helvetica,sans-Serif" font-style="italic" font-size="32.00" fill="#29235c">INTEGER</text>
<polygon fill="#e7e2dd" stroke="transparent" points="780.2,-184.96 780.2,-244.96 1082.2,-244.96 1082.2,-184.96 780.2,-184.96"/>
<polygon fill="none" stroke="#29235c" points="780.2,-184.96 780.2,-244.96 1082.2,-244.96 1082.2,-184.96 780.2,-184.96"/>
<text text-anchor="start" x="791.2" y="-205.16" font-family="Helvetica,sans-Serif" font-size="32.00" fill="#29235c">name &#160;&#160;&#160;</text>
<text text-anchor="start" x="914.77" y="-206.16" font-family="Helvetica,sans-Serif" font-style="italic" font-size="32.00" fill="#29235c">VARCHAR</text>
<polygon fill="#e7e2dd" stroke="transparent" points="780.2,-124.96 780.2,-184.96 1082.2,-184.96 1082.2,-124.96 780.2,-124.96"/>
<polygon fill="none" stroke="#29235c" points="780.2,-124.96 780.2,-184.96 1082.2,-184.96 1082.2,-124.96 780.2,-124.96"/>
<text text-anchor="start" x="791.2" y="-145.16" font-family="Helvetica,sans-Serif" font-size="32.00" fill="#29235c">email &#160;&#160;&#160;</text>
<text text-anchor="start" x="914.77" y="-146.16" font-family="Helvetica,sans-Serif" font-style="italic" font-size="32.00" fill="#29235c">VARCHAR</text>
<polygon fill="#e7e2dd" stroke="transparent" points="780.2,-64.96 780.2,-124.96 1082.2,-124.96 1082.2,-64.96 780.2,-64.96"/>
<polygon fill="none" stroke="#29235c" points="780.2,-64.96 780.2,-124.96 1082.2,-124.96 1082.2,-64.96 780.2,-64.96"/>
<text text-anchor="start" x="790.94" y="-85.16" font-family="Helvetica,sans-Serif" font-size="32.00" fill="#29235c">phone &#160;&#160;&#160;</text>
<text text-anchor="start" x="914.98" y="-86.16" font-family="Helvetica,sans-Serif" font-style="italic" font-size="32.00" fill="#29235c">VARCHAR</text>
<polygon fill="none" stroke="#29235c" stroke-width="2" points="779.2,-63.96 779.2,-365.96 1083.2,-365.96 1083.2,-63.96 779.2,-63.96"/>
</g>
<!-- ProductSupplier&#45;&gt;Supplier -->
<!-- ProductSupplier&#45;&gt;Supplier -->
<g id="edge20" class="edge">
<title>ProductSupplier:e&#45;&gt;Supplier:w</title>
<path fill="none" stroke="#29235c" stroke-width="3" d="M459.53,-154.96C607.88,-154.96 626.65,-269.63 769.17,-274.78"/>
<polygon fill="#29235c" stroke="#29235c" stroke-width="3" points="769.14,-278.28 779.2,-274.96 769.26,-271.28 769.14,-278.28"/>
<text text-anchor="middle" x="772.97" y="-246.16" font-family="Helvetica,sans-Serif" font-size="32.00" fill="#29235c">*</text>
<text text-anchor="middle" x="468.42" y="-126.16" font-family="Helvetica,sans-Serif" font-size="32.00" fill="#29235c">1</text>
</g>
<!-- Review -->
<g id="Review" class="node">
<title>Review</title>
<ellipse fill="none" stroke="black" stroke-width="0" cx="271.53" cy="-692.96" rx="267.99" ry="257.27"/>
<polygon fill="#1d71b8" stroke="transparent" points="84.53,-812.96 84.53,-872.96 459.53,-872.96 459.53,-812.96 84.53,-812.96"/>
<polygon fill="none" stroke="#29235c" points="84.53,-812.96 84.53,-872.96 459.53,-872.96 459.53,-812.96 84.53,-812.96"/>
<text text-anchor="start" x="157.34" y="-834.16" font-family="Helvetica,sans-Serif" font-weight="bold" font-size="32.00" fill="#ffffff"> &#160;&#160;&#160;&#160;&#160;&#160;Review &#160;&#160;&#160;&#160;&#160;&#160;</text>
<polygon fill="#e7e2dd" stroke="transparent" points="84.53,-752.96 84.53,-812.96 459.53,-812.96 459.53,-752.96 84.53,-752.96"/>
<polygon fill="none" stroke="#29235c" points="84.53,-752.96 84.53,-812.96 459.53,-812.96 459.53,-752.96 84.53,-752.96"/>
<text text-anchor="start" x="95.53" y="-774.16" font-family="Helvetica,sans-Serif" font-weight="bold" font-size="32.00" fill="#29235c">id</text>
<text text-anchor="start" x="120.42" y="-774.16" font-family="Helvetica,sans-Serif" font-size="32.00" fill="#29235c"> &#160;&#160;&#160;</text>
<text text-anchor="start" x="306.31" y="-774.16" font-family="Helvetica,sans-Serif" font-style="italic" font-size="32.00" fill="#29235c">INTEGER</text>
<polygon fill="#e7e2dd" stroke="transparent" points="84.53,-692.96 84.53,-752.96 459.53,-752.96 459.53,-692.96 84.53,-692.96"/>
<polygon fill="none" stroke="#29235c" points="84.53,-692.96 84.53,-752.96 459.53,-752.96 459.53,-692.96 84.53,-692.96"/>
<text text-anchor="start" x="95.53" y="-713.16" font-family="Helvetica,sans-Serif" font-size="32.00" fill="#29235c">customer_id &#160;&#160;&#160;</text>
<text text-anchor="start" x="306.31" y="-714.16" font-family="Helvetica,sans-Serif" font-style="italic" font-size="32.00" fill="#29235c">INTEGER</text>
<polygon fill="#e7e2dd" stroke="transparent" points="84.53,-632.96 84.53,-692.96 459.53,-692.96 459.53,-632.96 84.53,-632.96"/>
<polygon fill="none" stroke="#29235c" points="84.53,-632.96 84.53,-692.96 459.53,-692.96 459.53,-632.96 84.53,-632.96"/>
<text text-anchor="start" x="95.53" y="-653.16" font-family="Helvetica,sans-Serif" font-size="32.00" fill="#29235c">product_id &#160;&#160;&#160;</text>
<text text-anchor="start" x="306.31" y="-654.16" font-family="Helvetica,sans-Serif" font-style="italic" font-size="32.00" fill="#29235c">INTEGER</text>
<polygon fill="#e7e2dd" stroke="transparent" points="84.53,-572.96 84.53,-632.96 459.53,-632.96 459.53,-572.96 84.53,-572.96"/>
<polygon fill="none" stroke="#29235c" points="84.53,-572.96 84.53,-632.96 459.53,-632.96 459.53,-572.96 84.53,-572.96"/>
<text text-anchor="start" x="95.35" y="-593.16" font-family="Helvetica,sans-Serif" font-size="32.00" fill="#29235c">review_text &#160;&#160;&#160;</text>
<text text-anchor="start" x="292.32" y="-594.16" font-family="Helvetica,sans-Serif" font-style="italic" font-size="32.00" fill="#29235c">VARCHAR</text>
<polygon fill="#e7e2dd" stroke="transparent" points="84.53,-512.96 84.53,-572.96 459.53,-572.96 459.53,-512.96 84.53,-512.96"/>
<polygon fill="none" stroke="#29235c" points="84.53,-512.96 84.53,-572.96 459.53,-572.96 459.53,-512.96 84.53,-512.96"/>
<text text-anchor="start" x="95.53" y="-533.16" font-family="Helvetica,sans-Serif" font-size="32.00" fill="#29235c">rating &#160;&#160;&#160;</text>
<text text-anchor="start" x="306.31" y="-534.16" font-family="Helvetica,sans-Serif" font-style="italic" font-size="32.00" fill="#29235c">INTEGER</text>
<polygon fill="none" stroke="#29235c" stroke-width="2" points="83.03,-511.96 83.03,-873.96 460.03,-873.96 460.03,-511.96 83.03,-511.96"/>
</g>
<!-- Review&#45;&gt;Customer -->
<!-- Review&#45;&gt;Customer -->
<g id="edge22" class="edge">
<title>Review:e&#45;&gt;Customer:w</title>
<path fill="none" stroke="#29235c" stroke-width="3" d="M460.53,-722.96C573.16,-722.96 483.96,-886.61 579.06,-946.96 711.35,-1030.91 1157,-887.29 1283.34,-979.96 1405.24,-1069.39 1255.89,-1296 1393,-1306.58"/>
<polygon fill="#29235c" stroke="#29235c" stroke-width="3" points="1393.26,-1310.09 1403.38,-1306.96 1393.52,-1303.09 1393.26,-1310.09"/>
<text text-anchor="middle" x="1397.16" y="-1316.56" font-family="Helvetica,sans-Serif" font-size="32.00" fill="#29235c">*</text>
<text text-anchor="middle" x="469.42" y="-694.16" font-family="Helvetica,sans-Serif" font-size="32.00" fill="#29235c">1</text>
</g>
<!-- Review&#45;&gt;Product -->
<!-- Review&#45;&gt;Product -->
<g id="edge24" class="edge">
<title>Review:e&#45;&gt;Product:w</title>
<path fill="none" stroke="#29235c" stroke-width="3" d="M460.53,-662.96C594.74,-662.96 607.88,-776.94 735.95,-782.73"/>
<polygon fill="#29235c" stroke="#29235c" stroke-width="3" points="736.12,-786.24 746.2,-782.96 736.28,-779.24 736.12,-786.24"/>
<text text-anchor="middle" x="752.42" y="-754.16" font-family="Helvetica,sans-Serif" font-size="32.00" fill="#29235c">*</text>
<text text-anchor="middle" x="469.42" y="-634.16" font-family="Helvetica,sans-Serif" font-size="32.00" fill="#29235c">1</text>
</g>
</g>
</svg>
